# xmcd
#
# Track frame offsets: 
#        150
#        15462
#        31875
#        43407
#        58080
#        78427
#
# Disc length: 1330 seconds
#
# Revision: 3
# Processed by: cddbd v1.5.2PL0 Copyright (c) Steve Scherf et al.
# Submitted via: ExactAudioCopyFreeDBPlugin 1.0
#
DISCID=45053006
DTITLE=Boy Howdy - She'd Give Anything
DYEAR=1994
DGENRE=Country
TTITLE0=They Don't Make Them Like That Anymore
TTITLE1=She'd Give Anything
TTITLE2=Homegrown Love
TTITLE3=The One That Got Away
TTITLE4=Come On, Come On
TTITLE5=A Cowboy's Born With A Broken Heart
EXTD=
EXTT0=
EXTT1=
EXTT2=
EXTT3=
EXTT4=
EXTT5=
PLAYORDER=
